<?xml version="1.0" encoding="utf-8"?>
<!-- Generator: Adobe Illustrator 22.1.0, SVG Export Plug-In . SVG Version: 6.00 Build 0)  -->
<svg version="1.1" id="Layer_1" xmlns="http://www.w3.org/2000/svg" xmlns:xlink="http://www.w3.org/1999/xlink" x="0px" y="0px"
	 viewBox="0 0 313 98" style="enable-background:new 0 0 313 98;" xml:space="preserve">
<style type="text/css">
	.st0{fill:none;stroke:#000000;stroke-width:2;}
	.st1{font-family:'HelveticaNeue-Bold';}
	.st2{font-size:24px;}
</style>
<g>
	<g>
		<line class="st0" x1="30.3" y1="96.4" x2="147.8" y2="96.4"/>
		<polyline class="st0" points="89,95.4 89,40.8 89,39.8 		"/>
		<polygon points="93.8,40.8 89,31.2 84.2,40.8 		"/>
		<polyline class="st0" points="89.7,95.6 159.1,26.3 159.8,25.6 		"/>
		<polygon points="162.5,29.7 165.9,19.5 155.7,22.9 		"/>
		<polyline class="st0" points="88.3,95.6 18.9,26.3 18.2,25.6 		"/>
		<polygon points="15.5,29.7 12.2,19.5 22.3,22.9 		"/>
		<path class="st0" d="M58.6,65.1c20.9-20,41.5-20,61.8-0.1"/>
		<path d="M98.3,78.3c-0.9,0-1.8-0.3-2.6-0.9c-0.8-0.6-1.5-1.5-2-2.7C93.2,73.5,93,72,93,70.2c0-2.8,0.5-4.9,1.5-6.3
			c1-1.4,2.3-2.1,3.8-2.1c1.5,0,2.8,0.7,3.8,2.1c1,1.4,1.5,3.5,1.5,6.3c0,1.8-0.2,3.3-0.7,4.5c-0.5,1.2-1.1,2.1-2,2.7
			S99.2,78.3,98.3,78.3z M96.4,69.6h3.7v-0.8c0-2.6-0.2-4.4-0.5-5.1c-0.3-0.8-0.8-1.1-1.3-1.1c-0.6,0-1,0.4-1.3,1.2
			c-0.3,0.8-0.5,2.5-0.5,5.1V69.6z M96.4,70.4v0.8c0,2.9,0.2,4.7,0.5,5.4c0.4,0.7,0.8,1,1.3,1c0.3,0,0.7-0.2,0.9-0.5
			c0.3-0.3,0.5-0.9,0.7-1.6c0.1-0.7,0.2-2.2,0.2-4.3v-0.8H96.4z"/>
		<path d="M78.3,78.3c-0.9,0-1.8-0.3-2.6-0.9c-0.8-0.6-1.5-1.5-2-2.7C73.2,73.5,73,72,73,70.2c0-2.8,0.5-4.9,1.5-6.3
			c1-1.4,2.3-2.1,3.8-2.1c1.5,0,2.8,0.7,3.8,2.1c1,1.4,1.5,3.5,1.5,6.3c0,1.8-0.2,3.3-0.7,4.5c-0.5,1.2-1.1,2.1-2,2.7
			S79.2,78.3,78.3,78.3z M76.4,69.6h3.7v-0.8c0-2.6-0.2-4.4-0.5-5.1c-0.3-0.8-0.8-1.1-1.3-1.1c-0.6,0-1,0.4-1.3,1.2
			c-0.3,0.8-0.5,2.5-0.5,5.1V69.6z M76.4,70.4v0.8c0,2.9,0.2,4.7,0.5,5.4c0.4,0.7,0.8,1,1.3,1c0.3,0,0.7-0.2,0.9-0.5
			c0.3-0.3,0.5-0.9,0.7-1.6c0.1-0.7,0.2-2.2,0.2-4.3v-0.8H76.4z"/>
		<line class="st0" x1="103.3" y1="57.7" x2="107.4" y2="50.2"/>
		<line class="st0" x1="77" y1="57" x2="73" y2="49.5"/>
		<text transform="matrix(1 0 0 1 152 18)" class="st1 st2">r = -v + 2</text>
		<text transform="matrix(1 0 0 1 252.416 18)" class="st1 st2">(v·n)n</text>
		<text transform="matrix(1 0 0 1 82 27)" class="st1 st2">n</text>
		<text transform="matrix(1 0 0 1 0 18)" class="st1 st2">v</text>
	</g>
</g>
</svg>
